<svg xmlns="http://www.w3.org/2000/svg" viewBox="0 0 450 407.83"><defs><style>.cls-1{isolation:isolate;}.cls-2{fill:#62c4c0;}.cls-3{fill:#63e2ff;}.cls-4,.cls-6{opacity:0.3;}.cls-4{mix-blend-mode:overlay;}.cls-21,.cls-5{fill:#fff;}.cls-11,.cls-6{fill:#f6f6f6;}.cls-7{fill:#1d1d1b;}.cls-14,.cls-24,.cls-7{opacity:0.1;}.cls-8{fill:#dadada;}.cls-9{fill:#ededed;}.cls-10{fill:#e94e1b;}.cls-12{fill:#f9b233;}.cls-13{fill:#dcd9c8;}.cls-15{fill:#38e0e0;}.cls-16{fill:#95c11f;}.cls-17{fill:#826657;}.cls-18{fill:#634e42;}.cls-19{fill:#7b6a58;}.cls-20{fill:#a48a7b;}.cls-21{mix-blend-mode:screen;}.cls-22{fill:#c69f8a;}.cls-23{fill:#ffffde;}.cls-24{fill:#171715;}.cls-25{fill:#ffe9c0;}.cls-26{fill:#ff6f39;}.cls-27{fill:#8a735b;}.cls-28{fill:#383838;opacity:0.2;}.cls-29{fill:#936037;}.cls-30{fill:#5e5e5e;}.cls-31{fill:#878787;}.cls-32{fill:#e6332a;}.cls-33{fill:#92111a;}.cls-34{fill:#f0e66e;}.cls-35{fill:#d99b2c;}.cls-36{fill:#00a19a;}.cls-37{fill:#be1622;}.cls-38{fill:#3aaa35;}.cls-39{fill:#369e31;}.cls-40{fill:#047b87;}.cls-41{fill:#36a9e1;}.cls-42{fill:#0593a1;}.cls-43{fill:#3c3c3b;}.cls-44{fill:#7a9e19;}.cls-45{fill:#b2b2b2;}.cls-46{fill:#2b2b2b;}.cls-47{fill:#9d9d9c;}.cls-48{fill:#6e5649;}.cls-49{fill:#282827;}.cls-50{fill:#70eaff;}.cls-51{fill:#f4fffb;}</style></defs><title>Plan de travail 3</title><g class="cls-1"><g id="Layer_2" data-name="Layer 2"><rect class="cls-2" width="450" height="407.83"/><rect class="cls-3" width="450" height="141.08"/><g class="cls-4"><circle class="cls-5" cx="87.01" cy="20.36" r="10.69"/><path class="cls-5" d="M88.94,53.43a9,9,0,1,1-9-9A9,9,0,0,1,88.94,53.43Z"/><path class="cls-5" d="M42.14,19.61A7.62,7.62,0,1,1,34.53,12,7.61,7.61,0,0,1,42.14,19.61Z"/><path class="cls-5" d="M26.91,56.54A11.86,11.86,0,1,1,15.06,44.68,11.86,11.86,0,0,1,26.91,56.54Z"/><path class="cls-5" d="M113,77a6.64,6.64,0,1,1-6.63-6.63A6.63,6.63,0,0,1,113,77Z"/><circle class="cls-5" cx="155.25" cy="14.86" r="10.86" transform="translate(105.28 162.6) rotate(-76.78)"/><path class="cls-5" d="M174.94,95.47A4.93,4.93,0,1,1,170,90.54,4.93,4.93,0,0,1,174.94,95.47Z"/><path class="cls-5" d="M110.63,110A11.12,11.12,0,1,1,99.51,98.89,11.12,11.12,0,0,1,110.63,110Z"/><path class="cls-5" d="M143.71,85.24a3.34,3.34,0,1,1-3.33-3.34A3.33,3.33,0,0,1,143.71,85.24Z"/><circle class="cls-5" cx="186.77" cy="120.33" r="8.35"/><path class="cls-5" d="M222.18,91.08a11.52,11.52,0,1,1-11.52-11.51A11.52,11.52,0,0,1,222.18,91.08Z"/><path class="cls-5" d="M227.4,37.76a12,12,0,1,1-12-12A12,12,0,0,1,227.4,37.76Z"/><circle class="cls-5" cx="249.67" cy="19.33" r="7.33"/><circle class="cls-5" cx="271.71" cy="92.52" r="12.96" transform="translate(-14.72 111.02) rotate(-22.5)"/><path class="cls-5" d="M316.32,31.2a7.81,7.81,0,1,1-7.81-7.81A7.8,7.8,0,0,1,316.32,31.2Z"/><path class="cls-5" d="M334.05,68.77A10.8,10.8,0,1,0,344.85,58,10.8,10.8,0,0,0,334.05,68.77Z"/><path class="cls-5" d="M324.75,91.27a6,6,0,1,1-6-6A6,6,0,0,1,324.75,91.27Z"/><path class="cls-5" d="M308.6,119a7.32,7.32,0,1,1-7.32-7.32A7.32,7.32,0,0,1,308.6,119Z"/><path class="cls-5" d="M361.1,112.57a10.2,10.2,0,1,1-10.2-10.2A10.19,10.19,0,0,1,361.1,112.57Z"/><path class="cls-5" d="M383,94.51a7.84,7.84,0,1,1-7.84-7.84A7.83,7.83,0,0,1,383,94.51Z"/><path class="cls-5" d="M372.64,23.6a6.4,6.4,0,1,1-6.39-6.4A6.39,6.39,0,0,1,372.64,23.6Z"/><circle class="cls-5" cx="383.39" cy="53.03" r="7.97"/><path class="cls-5" d="M449,17.51A10.51,10.51,0,1,1,438.51,7,10.5,10.5,0,0,1,449,17.51Z"/><path class="cls-5" d="M441.33,58.87a5.23,5.23,0,1,1-5.23-5.23A5.24,5.24,0,0,1,441.33,58.87Z"/><path class="cls-5" d="M341.77,15.7a6,6,0,1,1-6-6A6,6,0,0,1,341.77,15.7Z"/><path class="cls-5" d="M275.65,50.66A5.71,5.71,0,1,1,269.94,45,5.71,5.71,0,0,1,275.65,50.66Z"/></g><rect class="cls-6" y="130.63" width="450" height="10.44"/><ellipse class="cls-7" cx="37.56" cy="142.98" rx="37.56" ry="6.76"/><path class="cls-7" d="M450,143c0,3.74-16.81,6.76-37.56,6.76s-37.55-3-37.55-6.76,16.81-6.76,37.55-6.76S450,139.25,450,143Z"/><rect class="cls-8" x="401.65" y="54.84" width="10.77" height="2.15"/><rect class="cls-9" x="400.48" y="56.19" width="13.12" height="15.84" rx="1.71"/><path class="cls-9" d="M402.14,51.92h9.8A1.07,1.07,0,0,1,413,53v2.07H401.08V53A1.06,1.06,0,0,1,402.14,51.92Z"/><rect class="cls-10" x="400.48" y="59.51" width="13.12" height="8.01"/><path class="cls-11" d="M410,61.77a1.13,1.13,0,1,0,1.13-1.13A1.13,1.13,0,0,0,410,61.77Z"/><rect class="cls-11" x="401.85" y="60.67" width="6.58" height="0.67"/><rect class="cls-11" x="404.26" y="62.35" width="4.17" height="0.67"/><rect class="cls-11" x="401.85" y="64.04" width="10.38" height="0.67"/><rect class="cls-11" x="401.85" y="65.73" width="10.38" height="0.67"/><rect class="cls-12" x="386.05" y="60.84" width="19.91" height="11.18" rx="2.29"/><path class="cls-5" d="M401.76,65.08a1.68,1.68,0,0,1,2.17-2.56,1.18,1.18,0,0,1,.21.18l.19.21A1.69,1.69,0,0,1,402,65.26,1.24,1.24,0,0,1,401.76,65.08Z"/><path class="cls-13" d="M401.76,65.08a1.68,1.68,0,0,1-.18-.21l2.35-2.35a1.18,1.18,0,0,1,.21.18l.19.21L402,65.26A1.24,1.24,0,0,1,401.76,65.08Z"/><path class="cls-5" d="M401.76,70.17a1.24,1.24,0,0,1-.18-.22,1.68,1.68,0,0,1,2.35-2.35l.21.18a2,2,0,0,1,.19.22A1.69,1.69,0,0,1,402,70.35,1.92,1.92,0,0,1,401.76,70.17Z"/><path class="cls-13" d="M401.76,70.17a1.24,1.24,0,0,1-.18-.22l2.35-2.35.21.18a2,2,0,0,1,.19.22L402,70.35A1.92,1.92,0,0,1,401.76,70.17Z"/><path class="cls-5" d="M397.13,65.08c-.06-.07-.13-.14-.18-.21a1.68,1.68,0,0,1,2.35-2.35,1.24,1.24,0,0,1,.22.18c.06.07.13.14.18.21a1.68,1.68,0,0,1-2.35,2.35A1.24,1.24,0,0,1,397.13,65.08Z"/><path class="cls-13" d="M397.13,65.08c-.06-.07-.13-.14-.18-.21l2.35-2.35a1.24,1.24,0,0,1,.22.18c.06.07.13.14.18.21l-2.35,2.35A1.24,1.24,0,0,1,397.13,65.08Z"/><path class="cls-5" d="M397.13,70.17A1.92,1.92,0,0,1,397,70a1.68,1.68,0,0,1,2.35-2.35l.22.18a1.92,1.92,0,0,1,.18.22,1.68,1.68,0,0,1-2.35,2.35A1.92,1.92,0,0,1,397.13,70.17Z"/><path class="cls-13" d="M397.13,70.17A1.92,1.92,0,0,1,397,70l2.35-2.35.22.18a1.92,1.92,0,0,1,.18.22l-2.35,2.35A1.92,1.92,0,0,1,397.13,70.17Z"/><path class="cls-5" d="M392.51,65.08l-.19-.21a1.69,1.69,0,0,1,2.35-2.35,1.24,1.24,0,0,1,.22.18,1.68,1.68,0,0,1-2.17,2.56A1.18,1.18,0,0,1,392.51,65.08Z"/><path class="cls-13" d="M392.51,65.08l-.19-.21,2.35-2.35a1.24,1.24,0,0,1,.22.18,1.68,1.68,0,0,1,.18.21l-2.35,2.35A1.18,1.18,0,0,1,392.51,65.08Z"/><path class="cls-5" d="M392.51,70.17a2,2,0,0,1-.19-.22,1.69,1.69,0,0,1,2.35-2.35l.22.18a1.24,1.24,0,0,1,.18.22,1.68,1.68,0,0,1-2.35,2.35A1.81,1.81,0,0,1,392.51,70.17Z"/><path class="cls-13" d="M392.51,70.17a2,2,0,0,1-.19-.22l2.35-2.35.22.18a1.24,1.24,0,0,1,.18.22l-2.35,2.35A1.81,1.81,0,0,1,392.51,70.17Z"/><path class="cls-5" d="M387.88,65.08a1.67,1.67,0,1,1,.21.18A1.68,1.68,0,0,1,387.88,65.08Z"/><path class="cls-13" d="M387.88,65.08a1.68,1.68,0,0,1-.18-.21l2.35-2.35a1.8,1.8,0,0,1,.39.39l-2.35,2.35A1.68,1.68,0,0,1,387.88,65.08Z"/><path class="cls-5" d="M387.88,70.17a1.24,1.24,0,0,1-.18-.22,1.68,1.68,0,0,1,2.35-2.35l.21.18a1.24,1.24,0,0,1,.18.22,1.68,1.68,0,0,1-2.35,2.35C388,70.3,388,70.23,387.88,70.17Z"/><path class="cls-13" d="M387.88,70.17a1.24,1.24,0,0,1-.18-.22l2.35-2.35.21.18a1.24,1.24,0,0,1,.18.22l-2.35,2.35C388,70.3,388,70.23,387.88,70.17Z"/><path class="cls-14" d="M404.64,66.65H387.38a.22.22,0,1,1,0-.44h17.26a.22.22,0,1,1,0,.44Z"/><rect class="cls-15" x="108.43" y="19.74" width="73.53" height="54.64"/><rect class="cls-16" x="113.81" y="51.1" width="64.6" height="19.24"/><path class="cls-17" d="M106.24,16V77.78h79.81V16ZM179,71.06H113.23V22.68H179Z"/><path class="cls-18" d="M178.41,63.57v.22a3,3,0,0,1,.59-.09v-.18Zm0,0v.22a3,3,0,0,1,.59-.09v-.18Zm0,0v.22a3,3,0,0,1,.59-.09v-.18ZM111.27,21V72.79H181V21Zm67.14,49.39h-64.6V23.39h64.6Zm0-6.77v.22a3,3,0,0,1,.59-.09v-.18Zm0,0v.22a3,3,0,0,1,.59-.09v-.18Zm0,0v.22a3,3,0,0,1,.59-.09v-.18Z"/><polygon class="cls-7" points="186 15.99 178.41 23.39 113.82 23.39 106.24 16 106.24 15.99 186 15.99"/><polygon class="cls-7" points="186.05 77.78 106.24 77.78 106.24 77.73 106.25 77.72 107.79 76.21 108.3 75.72 109.58 74.47 111.31 72.79 112.87 71.27 113.23 70.92 113.82 70.34 178.42 70.34 178.56 70.49 179 70.92 179.33 71.24 180.8 72.66 180.93 72.79 181.12 72.97 181.64 73.47 181.68 73.52 182.08 73.91 185.11 76.87 185.25 77 186.05 77.78"/><path class="cls-19" d="M172.23,51.83l4.82,9.06h-4.89L167.43,52l.74-1.4c0,.12,0,.24,0,.36a5.09,5.09,0,0,0,.9-.77c.18,0,.2.26.19.44a2.6,2.6,0,0,0,0,.83.23.23,0,0,0,.13.21c.09,0,.18,0,.24-.12l.35-.36.57,2c.07.24.18.53.42.58,0-.9,0-1.8,0-2.69a3.68,3.68,0,0,0,1.23,1.84A4.52,4.52,0,0,1,172.23,51.83Z"/><polygon class="cls-20" points="167.43 51.99 172.16 60.89 162.69 60.89 167.43 51.99"/><path class="cls-5" d="M172.23,51.83a4.52,4.52,0,0,0,0,1A3.68,3.68,0,0,1,171,51c0,.89,0,1.79,0,2.69-.24,0-.35-.34-.42-.58l-.57-2-.35.36c-.06.07-.15.15-.24.12a.23.23,0,0,1-.13-.21,2.6,2.6,0,0,1,0-.83c0-.18,0-.42-.19-.44a5.09,5.09,0,0,1-.9.77c0-.12,0-.24,0-.36l1.7-3.2Z"/><path class="cls-20" d="M165.51,48.39l1.92,3.6-4.74,8.9h-1.58l-4.81-9L158,48.63c1-.47,1.44-1.59,2.37-2.12-.26.87-.51,1.74-.77,2.61.08.12.26,0,.33-.12l1-1.49c.4.45.08,1.33.59,1.63A17.34,17.34,0,0,0,162,47c.67.79.7,1.94,1.26,2.81,0,.08.13.17.23.16s.19-.22.18-.38c-.06-1.07-.13-2.14-.19-3.21l1.61,2c.11.12.3.26.42.14A.19.19,0,0,0,165.51,48.39Z"/><polygon class="cls-20" points="156.3 51.84 161.11 60.89 151.49 60.89 156.3 51.84"/><path class="cls-5" d="M163.21,49.81c-.56-.87-.59-2-1.26-2.81a17.34,17.34,0,0,1-.46,2.14c-.51-.3-.19-1.18-.59-1.63l-1,1.49c-.07.11-.25.24-.33.12.26-.87.51-1.74.77-2.61-.93.53-1.41,1.65-2.37,2.12l3.81-7.17,3.69,6.93a.19.19,0,0,1,0,.09c-.12.12-.31,0-.42-.14l-1.61-2c.06,1.07.13,2.14.19,3.21,0,.16,0,.37-.18.38S163.26,49.89,163.21,49.81Z"/><path class="cls-18" d="M154.55,49.69a1.12,1.12,0,0,0,.78.32l1,1.83-4.81,9H145l5.75-10.81.26-.24v2a13.59,13.59,0,0,1,1.21-2,5.57,5.57,0,0,1,.1,2.47c.16.07.31-.12.39-.28.35-.71.71-1.42,1.06-2.14a7.36,7.36,0,0,0,.42.9c0,.07.1.16.19.15s.15-.16.16-.28C154.54,50.37,154.54,50,154.55,49.69Z"/><path class="cls-5" d="M154.55,49.69c0,.34,0,.68,0,1,0,.12,0,.28-.16.28s-.15-.08-.19-.15a7.36,7.36,0,0,1-.42-.9c-.35.72-.71,1.43-1.06,2.14-.08.16-.23.35-.39.28a5.57,5.57,0,0,0-.1-2.47,13.59,13.59,0,0,0-1.21,2v-2l-.26.24,2.3-4.34L155.33,50A1.12,1.12,0,0,1,154.55,49.69Z"/><path class="cls-21" d="M138.76,30.09a1.35,1.35,0,0,0-1.23-.75,1.36,1.36,0,0,0-1.2-1.3,1.69,1.69,0,0,0-.55,0,1.58,1.58,0,0,0-1.14-.46,1.77,1.77,0,0,0-.84.21,2.75,2.75,0,0,0-1.9-.69c-1.34,0-2.42.78-2.42,1.75-.92,0-1.66.53-1.66,1.2,0,0,0,0,0,0Z"/><path class="cls-21" d="M153,40.26c-.05-.39-.5-.71-1.09-.76a1.17,1.17,0,0,0-1-1.11,1.29,1.29,0,0,0-.48,0,1.37,1.37,0,0,0-1-.4,1.54,1.54,0,0,0-.72.18,2.39,2.39,0,0,0-1.63-.59c-1.14,0-2.07.67-2.07,1.5-.78,0-1.42.46-1.42,1a.83.83,0,0,0,0,.15Z"/><path class="cls-21" d="M175.23,39.62a1.56,1.56,0,0,0-1.47-.95,1.48,1.48,0,0,0-1.3-1.15,1.77,1.77,0,0,0-.83,0,1.83,1.83,0,0,0-2-.39,2,2,0,0,0-1.26-.46,1.93,1.93,0,0,0-1.78,1.1,1.47,1.47,0,0,0-1-.35,1.19,1.19,0,0,0-1.3,1h-.16c-.91,0-1.64.44-1.64,1a.48.48,0,0,0,.05.17Z"/><path class="cls-21" d="M171.57,31.57a2.31,2.31,0,0,0-2.17-1.4,2.17,2.17,0,0,0-1.91-1.69,2.65,2.65,0,0,0-1.23.07,2.55,2.55,0,0,0-1.47-.77,2.72,2.72,0,0,0-1.54.19,2.94,2.94,0,0,0-1.85-.67,2.85,2.85,0,0,0-2.62,1.62,2.17,2.17,0,0,0-1.43-.52,1.76,1.76,0,0,0-1.92,1.49h-.23c-1.34,0-2.42.64-2.42,1.45,0,.09.06.16.08.24Z"/><path class="cls-21" d="M126.29,39.62a1.48,1.48,0,0,0-1.2-.66,1.36,1.36,0,0,0-1.2-1.29,1.69,1.69,0,0,0-.55,0,1.59,1.59,0,0,0-1.14-.47,1.67,1.67,0,0,0-.84.22,2.82,2.82,0,0,0-1.9-.7c-1.34,0-2.42.78-2.42,1.75a1.5,1.5,0,0,0-1.64,1.15Z"/><rect class="cls-5" x="142.16" y="73.75" width="7.96" height="2.94"/><rect class="cls-22" x="133.82" y="25.85" width="0.45" height="6.58"/><rect class="cls-23" x="129.2" y="37.55" width="9.69" height="29.9"/><polygon class="cls-24" points="129.2 38.92 129.2 40.52 135.85 40.52 135.85 59.62 138.89 59.62 138.89 40.52 138.89 38.92 129.2 38.92"/><rect class="cls-25" x="119.43" y="46.75" width="10.82" height="20.71"/><polygon class="cls-25" points="131.7 43.78 131.7 47.15 130.25 48.36 119.43 48.36 117.99 47.15 117.99 43.78 119.54 43.78 119.54 45.02 121.66 45.02 121.66 43.78 123.78 43.78 123.78 45.02 125.9 45.02 125.9 43.78 128.03 43.78 128.03 45.02 130.15 45.02 130.15 43.78 131.7 43.78"/><rect class="cls-25" x="133.41" y="56.16" width="2.12" height="1.24"/><rect class="cls-25" x="139.72" y="56.16" width="2.12" height="1.24"/><rect class="cls-25" x="143.93" y="56.16" width="2.12" height="1.24"/><polygon class="cls-24" points="117.99 47.15 119.43 48.36 127.22 48.36 127.22 67.46 130.25 67.46 130.25 48.36 131.7 47.15 117.99 47.15"/><rect class="cls-25" x="127.22" y="57.35" width="18.83" height="10.11"/><rect class="cls-25" x="129.2" y="56.16" width="2.12" height="1.24"/><polygon class="cls-26" points="128.35 38.92 134.04 30.01 139.73 38.92 128.35 38.92"/><path class="cls-26" d="M142.17,27.91c-2.71,1.82-5.42-1.82-8.13,0V26.25c2.71-1.81,5.42,1.82,8.13,0-1.35,1.19-2.71,1-4.06.83C139.46,27.81,140.82,28.54,142.17,27.91Z"/><path class="cls-27" d="M124.84,55h-2.18v-3.2a1.08,1.08,0,0,1,1.08-1.08h0a1.08,1.08,0,0,1,1.08,1.08Z"/><path class="cls-27" d="M135.47,63.86v3.6h-5.93v-3.6a2.94,2.94,0,0,1,2.93-2.94h.06A2.94,2.94,0,0,1,135.47,63.86Z"/><path class="cls-27" d="M134.7,44h-1.32v-2a.65.65,0,0,1,.65-.65h0a.65.65,0,0,1,.65.65Z"/><path class="cls-27" d="M134.7,53.34h-1.32v-2a.65.65,0,0,1,.65-.65h0a.65.65,0,0,1,.65.65Z"/><path class="cls-28" d="M419.05,30.12v0a16,16,0,0,1-.79,3.68,5.13,5.13,0,0,1-.25.69,16.6,16.6,0,0,1-8.47,9c-.44.19-.92.39-1.38.56a14.51,14.51,0,0,1-2.43.65,12,12,0,0,1-1.36.21,15.63,15.63,0,0,1-3.53,0,12.78,12.78,0,0,1-1.36-.21,15,15,0,0,1-2.43-.65c-.48-.17-1-.39-1.44-.6l-.06,0c-.46-.23-.9-.46-1.32-.7a15.15,15.15,0,0,1-3.09-2.36,13.47,13.47,0,0,1-1.55-1.73,4.61,4.61,0,0,1-.46-.63,13.66,13.66,0,0,1-1.55-2.68,15.8,15.8,0,0,1-.6-1.48.14.14,0,0,1,0-.09c-.16-.46-.29-.94-.41-1.42a13.17,13.17,0,0,1-.38-2.26V30c0-.19.08-.4.11-.59a16.62,16.62,0,0,1,8.28-11.6s.06-.06.1-.06,0,0,0,0a16.66,16.66,0,0,1,15.83,0s0,0,0,0,.06,0,.09.06a16.49,16.49,0,0,1,8.28,11.62A4.16,4.16,0,0,1,419.05,30.12Z"/><path class="cls-29" d="M402.6,12a16.52,16.52,0,0,0-16.52,16.54V29c0,.37,0,.73.08,1.1a13.17,13.17,0,0,0,.38,2.26c.12.48.25,1,.41,1.42a.14.14,0,0,0,0,.09,15.8,15.8,0,0,0,.6,1.48,13.66,13.66,0,0,0,1.55,2.68,4.61,4.61,0,0,0,.46.63,13.47,13.47,0,0,0,1.55,1.73,15.15,15.15,0,0,0,3.09,2.36c.42.24.86.47,1.32.7l.06,0c.46.21,1,.43,1.44.6a15,15,0,0,0,2.43.65,12,12,0,0,0,1.36.21,15.63,15.63,0,0,0,3.53,0,12,12,0,0,0,1.36-.21,14.51,14.51,0,0,0,2.43-.65c.46-.17.94-.37,1.38-.56a16.6,16.6,0,0,0,8.47-9,5.13,5.13,0,0,0,.25-.69,16,16,0,0,0,.79-3.68v0c0-.31.06-.62.08-.94V29c0-.17,0-.34,0-.51A16.52,16.52,0,0,0,402.6,12ZM416,29V29a1.83,1.83,0,0,1,0,.33c0,.27,0,.54-.08.8a1.44,1.44,0,0,1,0,.41c-.06.36-.12.72-.21,1.07a8.92,8.92,0,0,1-.33,1.15,6.63,6.63,0,0,1-.33.88v0a1.15,1.15,0,0,1-.1.23,2.12,2.12,0,0,1-.23.48c-.1.23-.21.44-.33.67a3.48,3.48,0,0,1-.23.38c-.17.27-.34.54-.53.81s-.48.65-.75,1a12.27,12.27,0,0,1-1.67,1.63,5.82,5.82,0,0,1-.63.48,3.35,3.35,0,0,1-.59.42,12.84,12.84,0,0,1-2.21,1.15,12.21,12.21,0,0,1-1.21.44,12.46,12.46,0,0,1-1.24.3,2.09,2.09,0,0,1-.5.08,11,11,0,0,1-2.15.19,11.61,11.61,0,0,1-2.2-.19,3.39,3.39,0,0,1-.44-.08c-.42-.07-.84-.19-1.25-.3s-.82-.27-1.2-.44a11.12,11.12,0,0,1-1.15-.54,7.07,7.07,0,0,1-1-.56c-.23-.15-.46-.3-.69-.47a5.82,5.82,0,0,1-.63-.48,8.65,8.65,0,0,1-.94-.87,6.72,6.72,0,0,1-.85-.92,12.43,12.43,0,0,1-.92-1.24,6.77,6.77,0,0,1-.55-.92,9.61,9.61,0,0,1-.56-1.17.07.07,0,0,1,0-.06,6,6,0,0,1-.4-1.07c-.12-.39-.23-.77-.31-1.15a2.1,2.1,0,0,1-.09-.5,6.43,6.43,0,0,1-.16-1.07c0-.27,0-.56-.07-.85v-.51a13.3,13.3,0,0,1,3.93-9.47,11.09,11.09,0,0,1,1.51-1.31s0,0,0,0a13.31,13.31,0,0,1,15.83,0s0,0,0,0A13.36,13.36,0,0,1,416,28.53,3.17,3.17,0,0,1,416,29Z"/><path class="cls-5" d="M402.61,15.12A13.41,13.41,0,1,0,416,28.52,13.4,13.4,0,0,0,402.61,15.12Z"/><rect class="cls-30" x="401.4" y="24.69" width="9.34" height="1.4" transform="translate(87.74 278.78) rotate(-42.1)"/><rect class="cls-30" x="397.97" y="18.55" width="1.4" height="11.53" transform="translate(91.13 279.16) rotate(-43.14)"/><path class="cls-31" d="M404.19,28.52a1.58,1.58,0,1,1-1.58-1.58A1.58,1.58,0,0,1,404.19,28.52Z"/><rect class="cls-30" x="402.1" y="38.47" width="0.98" height="2.74"/><rect class="cls-30" x="389.92" y="28.02" width="2.74" height="0.98"/><rect class="cls-30" x="402.12" y="15.83" width="0.98" height="2.74"/><rect class="cls-30" x="412.56" y="28.04" width="2.74" height="0.98"/><rect class="cls-32" x="279.35" y="53.5" width="28.63" height="7.58"/><rect class="cls-33" x="281.36" y="53.5" width="1.66" height="7.58"/><rect class="cls-33" x="284.01" y="53.5" width="1.65" height="7.58"/><rect class="cls-33" x="304.49" y="53.5" width="1.66" height="7.58"/><rect class="cls-33" x="287.13" y="55.56" width="15.36" height="1.62"/><rect class="cls-33" x="288.31" y="57.96" width="12.99" height="1.07"/><rect class="cls-34" x="275.26" y="49.04" width="32.1" height="4.46"/><rect class="cls-35" x="275.26" y="49.04" width="0.68" height="4.46"/><rect class="cls-35" x="306.68" y="49.04" width="0.68" height="4.46"/><rect class="cls-35" x="277.05" y="50.4" width="19.84" height="1.74"/><rect class="cls-35" x="298.63" y="50.84" width="6.08" height="0.87"/><rect class="cls-29" x="279.73" y="61.08" width="27.52" height="5.21"/><rect class="cls-36" x="284.55" y="61.08" width="22.71" height="5.21"/><rect class="cls-12" x="280.92" y="61.63" width="0.95" height="3.75"/><rect class="cls-12" x="282.54" y="62.26" width="0.47" height="2.49"/><path class="cls-12" d="M304.52,65a1.35,1.35,0,1,0-1.34-1.34A1.35,1.35,0,0,0,304.52,65Z"/><rect class="cls-32" x="281.77" y="44.42" width="26" height="4.63"/><rect class="cls-37" x="281.77" y="44.42" width="0.55" height="4.63"/><rect class="cls-37" x="307.22" y="44.42" width="0.55" height="4.63"/><rect class="cls-37" x="283.22" y="45.83" width="16.07" height="1.8"/><rect class="cls-37" x="300.7" y="46.28" width="4.92" height="0.9"/><rect class="cls-29" x="279.22" y="39.01" width="28.55" height="5.4"/><rect class="cls-12" x="284.22" y="39.01" width="23.56" height="5.4"/><rect class="cls-12" x="280.45" y="39.96" width="0.98" height="3.89"/><rect class="cls-12" x="282.13" y="40.61" width="0.49" height="2.58"/><path class="cls-12" d="M304.93,40.41a1.39,1.39,0,1,1-1.39,1.39A1.4,1.4,0,0,1,304.93,40.41Z"/><rect class="cls-34" x="283.94" y="33.8" width="23.83" height="5.21"/><rect class="cls-35" x="283.94" y="33.8" width="0.43" height="5.21"/><rect class="cls-35" x="304.9" y="33.8" width="2.81" height="5.21"/><rect class="cls-35" x="287.79" y="33.8" width="0.43" height="5.21"/><rect class="cls-35" x="289.04" y="37.35" width="9.05" height="0.65"/><rect class="cls-35" x="289.04" y="36.08" width="5.49" height="0.66"/><rect class="cls-35" x="289.04" y="34.81" width="6.49" height="0.65"/><rect class="cls-32" x="332.41" y="38.03" width="5.4" height="28.55"/><rect class="cls-10" x="332.41" y="43.02" width="5.4" height="23.56"/><rect class="cls-35" x="333.36" y="39.26" width="3.89" height="0.98"/><rect class="cls-35" x="334.01" y="40.93" width="2.58" height="0.49"/><path class="cls-35" d="M333.81,63.74a1.39,1.39,0,1,0,1.39-1.39A1.39,1.39,0,0,0,333.81,63.74Z"/><rect class="cls-38" x="312.27" y="36.88" width="7.86" height="29.7"/><rect class="cls-39" x="312.27" y="38.97" width="7.86" height="1.72"/><rect class="cls-39" x="312.27" y="41.72" width="7.86" height="1.72"/><rect class="cls-39" x="312.27" y="62.96" width="7.86" height="1.72"/><rect class="cls-39" x="316.32" y="44.95" width="1.68" height="15.93"/><rect class="cls-39" x="314.4" y="46.18" width="1.11" height="13.47"/><rect class="cls-29" x="337.82" y="38.03" width="5.41" height="28.55"/><rect class="cls-40" x="337.82" y="43.02" width="5.41" height="23.56"/><rect class="cls-12" x="338.76" y="39.26" width="3.89" height="0.98"/><rect class="cls-12" x="339.42" y="40.93" width="2.58" height="0.49"/><path class="cls-12" d="M339.21,63.74a1.4,1.4,0,1,0,1.39-1.39A1.39,1.39,0,0,0,339.21,63.74Z"/><rect class="cls-32" x="320.13" y="39.78" width="6.84" height="26.8"/><rect class="cls-7" x="321.45" y="41.86" width="3.98" height="22.7"/><rect class="cls-41" x="326.98" y="36.29" width="5.44" height="30.29"/><rect class="cls-42" x="328.05" y="38.84" width="2.86" height="2.47"/><rect class="cls-42" x="328.05" y="42.06" width="2.86" height="2.47"/><polygon class="cls-18" points="349.87 66.51 349.87 71.26 274.28 71.01 274.28 66.26 349.87 66.51"/><rect class="cls-43" x="0.19" y="74.43" width="73.11" height="69.08"/><rect class="cls-18" y="71.94" width="73.3" height="7.06"/><rect class="cls-17" x="3.2" y="82.06" width="32.54" height="55.18"/><path class="cls-18" d="M26.48,83.78H12.74A7.26,7.26,0,0,1,5.49,91v37.24a7.25,7.25,0,0,1,7.25,7.25H26.48a7.25,7.25,0,0,1,7.26-7.25V91A7.26,7.26,0,0,1,26.48,83.78Z"/><rect class="cls-17" x="37.75" y="82.06" width="32.54" height="55.18"/><path class="cls-18" d="M61,83.78H47.29A7.26,7.26,0,0,1,40,91v37.24a7.25,7.25,0,0,1,7.25,7.25H61a7.25,7.25,0,0,1,7.26-7.25V91A7.26,7.26,0,0,1,61,83.78Z"/><ellipse class="cls-12" cx="29.11" cy="109.5" rx="2.2" ry="2.48"/><ellipse class="cls-12" cx="45.05" cy="109.5" rx="2.19" ry="2.48"/><rect class="cls-43" x="376.89" y="74.43" width="73.11" height="69.08"/><rect class="cls-18" x="376.7" y="71.94" width="73.3" height="7.06"/><rect class="cls-17" x="379.9" y="82.06" width="32.54" height="55.18"/><path class="cls-18" d="M403.19,83.78H389.44A7.25,7.25,0,0,1,382.19,91v37.24a7.24,7.24,0,0,1,7.25,7.25h13.75a7.24,7.24,0,0,1,7.25-7.25V91A7.25,7.25,0,0,1,403.19,83.78Z"/><rect class="cls-17" x="414.45" y="82.06" width="32.54" height="55.18"/><path class="cls-18" d="M437.74,83.78H424A7.25,7.25,0,0,1,416.74,91v37.24a7.24,7.24,0,0,1,7.25,7.25h13.75a7.24,7.24,0,0,1,7.25-7.25V91A7.25,7.25,0,0,1,437.74,83.78Z"/><ellipse class="cls-12" cx="405.81" cy="109.5" rx="2.2" ry="2.48"/><path class="cls-12" d="M424,109.5a2.21,2.21,0,1,1-2.2-2.48A2.36,2.36,0,0,1,424,109.5Z"/><path class="cls-16" d="M34.68,42.8A15.93,15.93,0,0,0,30,40.38,20,20,0,0,0,24.56,39c-4-.3-7.9,1.44-11.37,3.49.75-2,2.81-3.2,4.81-4,5.54-2.19,12-2.51,17.39.06s9.35,8.34,8.93,14.29c-.09,1.3-.54,2.79-1.77,3.26a89.55,89.55,0,0,0-4.11-8.34A16.49,16.49,0,0,0,34.68,42.8Z"/><path class="cls-44" d="M41.71,53.22C40.5,49,39.89,44.52,38.26,40.4s-4.56-8-8.76-9.43c-3.91-1.31-8.19-.25-12.16.91a16.78,16.78,0,0,1,20.58,1.69C41.48,37,43.28,41.9,44.4,46.73a8.32,8.32,0,0,1,.21,4.05A3.12,3.12,0,0,1,41.71,53.22Z"/><path class="cls-16" d="M43.44,57.08c-1.12-5.36-2.25-10.79-2.09-16.26s1.77-11.1,5.48-15.14c2.81-3.06,7.05-5.09,11.14-4.29-4.93,2.75-8.3,7.76-10.14,13.09s-2.33,11-2.67,16.67C45,53.25,44.86,55.53,43.44,57.08Z"/><path class="cls-44" d="M42.14,56.09C42,49.46,46.4,43.58,51.39,39.22c3-2.57,6.38-4.89,10.28-5.24s7.42,1.2,10.67,3.11c-2.21.66-4.6-.26-6.88.09A12.24,12.24,0,0,0,62,38.43c-6.15,3-12.6,6.52-15.63,12.64C45.4,53.13,44.41,55.75,42.14,56.09Z"/><path class="cls-16" d="M65.05,46a13,13,0,0,1,8.63,11.39A20.53,20.53,0,0,0,70,53.69a19.77,19.77,0,0,0-5.41-2.4,30,30,0,0,0-8.7-1.83,11.31,11.31,0,0,0-8.19,2.9c-1.95,1.92-3.32,5-6,5.2-1,.07-2.12-.51-2.1-1.47a2.21,2.21,0,0,1,.37-1c3.53-6,10.67-9.07,17.6-9.68A18.58,18.58,0,0,1,65.05,46Z"/><path class="cls-16" d="M44.25,52.1l-.3-1a24.25,24.25,0,0,0-7.52-2.64c-4.49-.79-9.39-.2-13.1,2.45s-5.92,7.62-4.57,12a14.19,14.19,0,0,1,6.1-9.11A16.43,16.43,0,0,1,35.59,51.2C38.49,51.5,41.36,52.51,44.25,52.1Z"/><polygon class="cls-17" points="51.77 71.94 36.73 71.94 31.71 52.04 56.78 52.04 51.77 71.94"/><polygon class="cls-43" points="54.9 59.5 56.16 54.5 32.33 54.5 33.59 59.5 54.9 59.5"/><path class="cls-7" d="M398.75,159.48c0,3.74-16.81,6.76-37.56,6.76s-37.55-3-37.55-6.76,16.81-6.76,37.55-6.76S398.75,155.75,398.75,159.48Z"/><rect class="cls-45" x="335.47" y="129.83" width="26.72" height="2.9"/><path class="cls-45" d="M332.64,159.71l8.42-51.2a6.52,6.52,0,0,1,6.48-5.45h2.94a6.51,6.51,0,0,1,6.48,5.45l8.42,51.2,2.89-.47-8.42-51.19a9.43,9.43,0,0,0-9.37-7.89h-2.94a9.43,9.43,0,0,0-9.37,7.89l-8.42,51.19Z"/><path class="cls-46" d="M364.25,161.41h5l-.57-2.69a1.2,1.2,0,0,0-1.17-.94h-1.81a1.19,1.19,0,0,0-1.19,1.05Z"/><path class="cls-46" d="M333.71,161.41h-5l.58-2.69a1.18,1.18,0,0,1,1.16-.94h1.82a1.19,1.19,0,0,1,1.18,1.05Z"/><rect class="cls-45" x="337.55" y="114.79" width="11.96" height="2.93"/><rect class="cls-45" x="332.55" y="145.54" width="12.14" height="2.93"/><rect class="cls-8" x="346.58" y="129.83" width="26.73" height="2.9"/><path class="cls-9" d="M343.76,159.71l8.42-51.2a6.51,6.51,0,0,1,6.48-5.45h2.94a6.52,6.52,0,0,1,6.48,5.45l8.42,51.2,2.89-.47L371,108.05a9.43,9.43,0,0,0-9.37-7.89h-2.94a9.43,9.43,0,0,0-9.37,7.89l-8.42,51.19Z"/><path class="cls-43" d="M375.37,161.41h5l-.58-2.69a1.18,1.18,0,0,0-1.16-.94h-1.82a1.19,1.19,0,0,0-1.18,1.05Z"/><path class="cls-43" d="M344.83,161.41h-5l.58-2.69a1.19,1.19,0,0,1,1.16-.94h1.82a1.17,1.17,0,0,1,1.18,1.05Z"/><path class="cls-7" d="M160.36,166.69c0,4.62-17.83,8.38-39.82,8.38s-39.81-3.76-39.81-8.38,17.82-8.38,39.81-8.38S160.36,162.06,160.36,166.69Z"/><path class="cls-43" d="M106.49,134.64h.6v-1.85h-.6a2.78,2.78,0,0,1-2.76-2.47l-4.83-38A5,5,0,0,0,94,87.93H90.28v1.85H94a3.11,3.11,0,0,1,3.07,2.74l4.83,38A4.62,4.62,0,0,0,106.49,134.64Z"/><polygon class="cls-43" points="136.54 161.25 138.39 161.25 138.39 132.79 106.17 132.79 106.17 146.38 108.02 146.38 108.02 134.64 136.54 134.64 136.54 161.25"/><path class="cls-36" d="M104.15,95.11l4,31.71a2.45,2.45,0,0,0,2.43,2.17h26.73a4.15,4.15,0,0,1,4.15,4.15v0H107.22a3.6,3.6,0,0,1-3.59-3.19l-4.8-37.94,1.22-.16A3.66,3.66,0,0,1,104.15,95.11Z"/><path class="cls-9" d="M133.92,161.25a7.53,7.53,0,1,0,7.52-7.52A7.53,7.53,0,0,0,133.92,161.25Z"/><path class="cls-43" d="M141.44,155.84a5.41,5.41,0,1,1-5.41,5.41,5.41,5.41,0,0,1,5.41-5.41Zm0-2.11a7.53,7.53,0,1,0,7.53,7.52,7.52,7.52,0,0,0-7.53-7.52Z"/><path class="cls-47" d="M139.75,159.56a2.4,2.4,0,0,0,3.39,3.39A2.4,2.4,0,0,0,139.75,159.56Z"/><rect class="cls-47" x="85.7" y="144.95" width="42.89" height="1.4" transform="translate(-67.27 193.36) rotate(-68.96)"/><rect class="cls-47" x="106.44" y="124.21" width="1.4" height="42.88" transform="translate(-49.94 56.1) rotate(-23.97)"/><rect class="cls-47" x="106.44" y="124.21" width="1.4" height="42.89" transform="translate(-67.27 193.33) rotate(-68.95)"/><rect class="cls-47" x="85.7" y="144.95" width="42.88" height="1.4" transform="translate(-49.94 56.1) rotate(-23.97)"/><path class="cls-47" d="M97.91,125a22.62,22.62,0,1,1-11.48,29.86A22.64,22.64,0,0,1,97.91,125Zm1.26,2.84a19.52,19.52,0,1,0,25.76,9.91A19.54,19.54,0,0,0,99.17,127.84Z"/><path class="cls-43" d="M114.63,126.09a21,21,0,1,1-27.12,12,21,21,0,0,1,27.12-12Zm.76-2A23.09,23.09,0,1,0,128.65,154a23.1,23.1,0,0,0-13.26-29.84Z"/><path class="cls-9" d="M104.9,140.73a5.41,5.41,0,1,0,7.14,2.75A5.41,5.41,0,0,0,104.9,140.73Z"/><path class="cls-47" d="M106.16,143.5a2.4,2.4,0,0,0,1.94,4.38A2.4,2.4,0,0,0,106.16,143.5Z"/><rect class="cls-36" x="81.82" y="87.38" width="10.65" height="3.08" rx="1.11"/><path class="cls-7" d="M268.77,154.59c0,4.63-17.67,8.38-39.47,8.38s-39.47-3.75-39.47-8.38,17.67-8.38,39.47-8.38S268.77,150,268.77,154.59Z"/><rect class="cls-48" x="199" y="110.62" width="60.82" height="41.74"/><rect class="cls-49" x="199" y="110.62" width="26.08" height="41.74"/><path class="cls-43" d="M203.56,60.94h37.35c.88,0,1.59,1,1.59,2.18v37.3c0,1.2-.71,2.18-1.59,2.18h-1.84v1.92H236V102.6H208.62v1.92h-3.08V102.6h-2c-.88,0-1.59-1-1.59-2.18V63.12C202,61.92,202.68,60.94,203.56,60.94Z"/><path class="cls-18" d="M217.17,102h37.36c.62,0,1.12-.69,1.12-1.54V63.12c0-.85-.5-1.54-1.12-1.54H217.17c-.62,0-1.12.69-1.12,1.54v37.3C216.05,101.27,216.55,102,217.17,102Z"/><path class="cls-43" d="M215.58,100.42V63.12c0-1.2.72-2.18,1.59-2.18h37.36c.88,0,1.59,1,1.59,2.18v37.3c0,1.2-.71,2.18-1.59,2.18H217.17C216.3,102.6,215.58,101.62,215.58,100.42Zm1.59-38.2c-.36,0-.65.4-.65.9v37.3c0,.49.29.89.65.89h37.36c.36,0,.65-.4.65-.89V63.12c0-.5-.29-.9-.65-.9Z"/><path class="cls-50" d="M224.05,93.62h23.6c1.3,0,2.35-1.43,2.35-3.21V68.86c0-1.78-1.05-3.21-2.35-3.21h-23.6c-1.3,0-2.35,1.43-2.35,3.21V90.41C221.7,92.19,222.75,93.62,224.05,93.62Z"/><path class="cls-51" d="M245.15,67.46h2.06c.69,0,1.25.76,1.25,1.71v22c0,.38-.23.69-.51.69C247.54,81.42,246.92,71.94,245.15,67.46Z"/><path class="cls-43" d="M221.23,90.41V68.86c0-2.13,1.27-3.86,2.82-3.86h23.6c1.56,0,2.82,1.73,2.82,3.86V90.41c0,2.13-1.26,3.86-2.82,3.86h-23.6C222.5,94.27,221.23,92.54,221.23,90.41Zm2.82-24.12c-1,0-1.88,1.15-1.88,2.57V90.41c0,1.42.84,2.57,1.88,2.57h23.6c1,0,1.88-1.15,1.88-2.57V68.86c0-1.42-.84-2.57-1.88-2.57Z"/><path class="cls-12" d="M249.74,97c0,1.43.85,2.6,1.9,2.6s1.9-1.17,1.9-2.6-.85-2.6-1.9-2.6S249.74,95.53,249.74,97Z"/><path class="cls-5" d="M246.81,97.42c0,.68.4,1.23.9,1.23s.89-.55.89-1.23-.4-1.23-.89-1.23S246.81,96.74,246.81,97.42Z"/><path class="cls-5" d="M244.46,97.42c0,.68.41,1.23.9,1.23s.9-.55.9-1.23-.4-1.23-.9-1.23S244.46,96.74,244.46,97.42Z"/><path class="cls-5" d="M224.67,97.42c0,.68.4,1.23.89,1.23s.9-.55.9-1.23-.4-1.23-.9-1.23S224.67,96.74,224.67,97.42Z"/><path class="cls-43" d="M229.52,96.15c0,.24.15.44.32.44h12c.18,0,.32-.2.32-.44h0c0-.25-.14-.44-.32-.44h-12c-.17,0-.32.19-.32.44Z"/><path class="cls-43" d="M229.52,97.86c0,.24.15.44.32.44h12c.18,0,.32-.2.32-.44h0c0-.24-.14-.44-.32-.44h-12c-.17,0-.32.2-.32.44Z"/><path class="cls-43" d="M229.52,99.57c0,.25.15.45.32.45h12c.18,0,.32-.2.32-.45h0c0-.24-.14-.44-.32-.44h-12c-.17,0-.32.2-.32.44Z"/><rect class="cls-43" x="249.6" y="101.96" width="3.08" height="2.56"/><rect class="cls-43" x="219.16" y="101.96" width="3.08" height="2.56"/><rect class="cls-17" x="194.15" y="104.54" width="72.02" height="7.05"/><rect class="cls-43" x="194.15" y="104.54" width="28.19" height="7.05"/><rect class="cls-18" x="228.58" y="114.15" width="27.54" height="35.06"/><rect class="cls-43" x="252.68" y="152.36" width="4.53" height="2.23"/><rect class="cls-43" x="226.31" y="152.36" width="4.53" height="2.23"/><rect class="cls-43" x="201.97" y="152.36" width="4.53" height="2.23"/><ellipse class="cls-49" cx="232.06" cy="131.68" rx="1.9" ry="1.68"/><ellipse class="cls-12" cx="233.85" cy="131.68" rx="1.9" ry="2.6"/></g></g></svg>