<svg xmlns="http://www.w3.org/2000/svg" viewBox="0 0 649.89 130"><defs><style>.cls-1{fill:#fff;}</style></defs><title>Logo Nevada - White</title><g id="Calque_2" data-name="Calque 2"><g id="Calque_1-2" data-name="Calque 1"><path class="cls-1" d="M167.77,0H0V130H242.82ZM94.56,114.3H69.91L41.45,65v49.3H16.8V15.7H41.45L69.91,65V15.7H94.56Zm18.79,0V15.7h41.56l14.23,24.65H138V52.18h38l14.24,24.65H138V89.65h59.61l14.23,24.65H113.35Z"/><polygon id="V" class="cls-1" points="259.22 114.3 316.15 15.7 202.29 15.7 259.22 114.3"/><path id="A" class="cls-1" d="M340.07,15.7l-56.92,98.6H397Zm.12,80.85A14.79,14.79,0,1,1,355,81.76,14.79,14.79,0,0,1,340.19,96.55Z"/><circle class="cls-1" cx="566.25" cy="81.46" r="14.79" transform="translate(-5.19 108.55) rotate(-10.9)"/><path class="cls-1" d="M649.89,130,574.83,0H356.06l75.05,130H649.89ZM566.14,15.4,623.06,114H509.21ZM472.6,114h-28l-.08,0h-1.08L386.86,16H439l59.65,34.44,21.65,12.5-29.5,51.11H472.68Z"/><polygon class="cls-1" points="457.79 89 476.42 89 486.18 72.09 428.95 39.05 457.79 89"/></g></g></svg>