<svg xmlns="http://www.w3.org/2000/svg" viewBox="0 0 282.85 344.76"><defs><style>.cls-1{fill:#7f6449;}.cls-2{fill:#ede5d1;}.cls-3{fill:none;stroke:#d1c8b4;stroke-miterlimit:10;stroke-width:0.25px;}.cls-4{fill:#5e4c37;}.cls-5{fill:#d85339;}</style></defs><title>Fichier 1</title><g id="Calque_2" data-name="Calque 2"><g id="Calque_1-2" data-name="Calque 1"><path class="cls-1" d="M282.85,324.32a16.33,16.33,0,0,1-16.07,16.61L31,341a16.38,16.38,0,0,1-16.13-16.6L14.28,16.73A16.34,16.34,0,0,1,30.36.11L266.18,0a16.39,16.39,0,0,1,16.13,16.6Z"/><path class="cls-2" d="M271.75,12.69,39.4,12.8A19.66,19.66,0,0,0,19.71,32.48L20.2,312A19.73,19.73,0,0,0,40,331.65l232.36-.11Z"/><path class="cls-3" d="M43.53,32.47l216.77-.11Z"/><path class="cls-3" d="M43.57,52.14,260.33,52Z"/><path class="cls-3" d="M43.6,71.81l216.77-.1Z"/><path class="cls-3" d="M43.64,91.49l216.76-.1Z"/><path class="cls-3" d="M43.67,111.16l216.77-.1Z"/><path class="cls-3" d="M43.7,130.83l216.77-.1Z"/><path class="cls-3" d="M43.74,150.5l216.77-.1Z"/><path class="cls-3" d="M43.77,170.17l216.77-.11Z"/><path class="cls-3" d="M43.81,189.85l216.76-.1Z"/><path class="cls-3" d="M43.84,209.52l216.77-.1Z"/><path class="cls-3" d="M43.87,229.19l216.77-.1Z"/><path class="cls-3" d="M43.91,248.86l216.76-.1Z"/><path class="cls-3" d="M44,268.53l216.76-.1Z"/><path class="cls-3" d="M44,288.21l216.76-.1Z"/><path class="cls-3" d="M44,307.88l216.76-.09Z"/><path class="cls-4" d="M0,27.57a4.91,4.91,0,0,1,4.92-4.92l28.74,0a4.92,4.92,0,1,1,0,9.84H4.94A4.92,4.92,0,0,1,0,27.57ZM33.7,44.76,5,44.78a4.92,4.92,0,1,0,0,9.84l28.74,0a4.92,4.92,0,1,0,0-9.84Zm0,22.14H5a4.92,4.92,0,1,0,0,9.84l28.75,0a4.92,4.92,0,1,0,0-9.83Zm0,22.13L5,89.05a4.92,4.92,0,1,0,0,9.83H33.8a4.92,4.92,0,0,0,0-9.84Zm0,22.13-28.75,0a4.92,4.92,0,1,0,0,9.83H33.83a4.92,4.92,0,1,0,0-9.84Zm0,22.13-28.74,0a4.92,4.92,0,1,0,0,9.83H33.87a4.92,4.92,0,1,0,0-9.84Zm0,22.13H5.15a4.92,4.92,0,0,0,0,9.84H33.91a4.92,4.92,0,1,0,0-9.84Zm0,22.14H5.19a4.92,4.92,0,1,0,0,9.84l28.74,0a4.92,4.92,0,1,0,0-9.83Zm0,22.13H5.23a4.92,4.92,0,1,0,0,9.84H34a4.92,4.92,0,1,0,0-9.84Zm0,22.13H5.27a4.92,4.92,0,1,0,0,9.84l28.74,0a4.92,4.92,0,1,0,0-9.83Zm0,22.13H5.31a4.92,4.92,0,1,0,0,9.83H34.07a4.92,4.92,0,1,0,0-9.83Zm0,22.12-28.75,0a4.93,4.93,0,0,0,0,9.85l28.74,0a4.93,4.93,0,1,0,0-9.85Zm0,22.15H5.38a4.92,4.92,0,0,0,0,9.84l28.74,0a4.92,4.92,0,1,0,0-9.83Zm0,22.13H5.42a4.92,4.92,0,1,0,0,9.83H34.18a4.92,4.92,0,1,0,0-9.83Z"/><polygon class="cls-5" points="56.39 344.76 51.46 341.34 46.53 344.76 45.95 12.39 55.81 12.38 56.39 344.76"/><path class="cls-1" d="M5.13,143.14h9.44l0-9.83H5.11a5,5,0,0,0-2.06.48l0,8.87A4.86,4.86,0,0,0,5.13,143.14Z"/><path class="cls-1" d="M5.21,187.41h9.43v-9.83H5.19a5,5,0,0,0-2.06.48l0,8.88A5.14,5.14,0,0,0,5.21,187.41Z"/><path class="cls-1" d="M5.17,165.27h9.44l0-9.84H5.15a5.18,5.18,0,0,0-2.06.48l0,8.88A4.83,4.83,0,0,0,5.17,165.27Z"/><path class="cls-1" d="M5.09,121h9.44l0-9.84H5.07a4.93,4.93,0,0,0-2.05.47v8.88A4.86,4.86,0,0,0,5.09,121Z"/><path class="cls-1" d="M5.05,98.88h9.44V89H5A4.91,4.91,0,0,0,3,89.53L3,98.4A4.86,4.86,0,0,0,5.05,98.88Z"/><path class="cls-1" d="M14.42,54.61l0-9.84H5a5,5,0,0,0-2.06.48l0,8.87A5,5,0,0,0,5,54.62Z"/><path class="cls-1" d="M5,76.75h9.45l0-9.83H5a5,5,0,0,0-2.06.48l0,8.88A4.94,4.94,0,0,0,5,76.75Z"/><path class="cls-1" d="M5.24,209.54h9.45l0-9.83H5.23a5.17,5.17,0,0,0-2.06.47v8.89A4.86,4.86,0,0,0,5.24,209.54Z"/><path class="cls-1" d="M14.88,320.19l0-9.84H5.42a5,5,0,0,0-2.06.47l0,8.89a5,5,0,0,0,2.06.47Z"/><path class="cls-1" d="M5.4,298.07h9.44v-9.84H5.38a5,5,0,0,0-2.06.47l0,8.88A5.19,5.19,0,0,0,5.4,298.07Z"/><path class="cls-1" d="M2.86,23.13V32a4.9,4.9,0,0,0,2.07.47h9.44l0-9.84H4.92A5,5,0,0,0,2.86,23.13Z"/><path class="cls-1" d="M5.36,275.94H14.8v-9.85H5.34a5.22,5.22,0,0,0-2.06.48l0,8.89A5.36,5.36,0,0,0,5.36,275.94Z"/><path class="cls-1" d="M5.29,231.67h9.44l0-9.83H5.27a5,5,0,0,0-2.06.48v8.88A5,5,0,0,0,5.29,231.67Z"/><path class="cls-1" d="M5.32,253.79h9.45l0-9.83H5.31a4.94,4.94,0,0,0-2.06.48v8.88A4.85,4.85,0,0,0,5.32,253.79Z"/></g></g></svg>